<?xml version="1.0" encoding="utf-8"?>
<!-- Generator: Adobe Illustrator 17.1.0, SVG Export Plug-In . SVG Version: 6.00 Build 0)  -->
<!DOCTYPE svg PUBLIC "-//W3C//DTD SVG 1.1//EN" "http://www.w3.org/Graphics/SVG/1.1/DTD/svg11.dtd">
<svg version="1.1" id="Layer_1" xmlns="http://www.w3.org/2000/svg" xmlns:xlink="http://www.w3.org/1999/xlink" x="0px" y="0px"
	 viewBox="0 0 32 32" enable-background="new 0 0 32 32" xml:space="preserve">
<path fill="#00CCFF" d="M32,16c0,8.8-7.2,16-16,16S0,24.8,0,16S7.2,0,16,0S32,7.2,32,16z M6.2,9.1C4.8,11,4,13.4,4,16
	c0,6.6,5.3,12,12,12c2.6,0,5-0.8,7-2.2L6.2,9.1z M28,16c0-6.7-5.4-12-12-12c-2.6,0-5,0.8-6.9,2.2L25.8,23C27.2,21,28,18.6,28,16
	L28,16z"/>
</svg>
