<?xml version="1.0" encoding="utf-8"?>
<!-- Generator: Adobe Illustrator 17.1.0, SVG Export Plug-In . SVG Version: 6.00 Build 0)  -->
<!DOCTYPE svg PUBLIC "-//W3C//DTD SVG 1.1//EN" "http://www.w3.org/Graphics/SVG/1.1/DTD/svg11.dtd">
<svg version="1.1" id="Layer_1" xmlns="http://www.w3.org/2000/svg" xmlns:xlink="http://www.w3.org/1999/xlink" x="0px" y="0px"
	 viewBox="0 0 32 32" enable-background="new 0 0 32 32" xml:space="preserve">
<path fill="#00CCFF" d="M10.4,1.1c0.3-0.7,1-1.1,1.8-1.1h7.5c0.8,0,1.4,0.4,1.8,1.1L22,2h6c1.1,0,2,0.9,2,2s-0.9,2-2,2H4
	C2.9,6,2,5.1,2,4s0.9-2,2-2h6L10.4,1.1z M26.7,29.1c-0.1,1.6-1.4,2.9-3,2.9H8.3c-1.6,0-2.9-1.2-3-2.9L3.9,8H28L26.7,29.1z"/>
</svg>
